<?xml version="1.0" encoding="UTF-8" standalone="no"?>
<svg
   xmlns:dc="http://purl.org/dc/elements/1.1/"
   xmlns:cc="http://creativecommons.org/ns#"
   xmlns:rdf="http://www.w3.org/1999/02/22-rdf-syntax-ns#"
   xmlns:svg="http://www.w3.org/2000/svg"
   xmlns="http://www.w3.org/2000/svg"
   xmlns:sodipodi="http://sodipodi.sourceforge.net/DTD/sodipodi-0.dtd"
   xmlns:inkscape="http://www.inkscape.org/namespaces/inkscape"
   version="1.1"
   width="543.87494"
   height="101.30271"
   id="svg4713"
   inkscape:version="0.92.2 5c3e80d, 2017-08-06"
   viewBox="0 0 543.87494 101.30271"
   sodipodi:docname="spi.svg">
  <metadata
     id="metadata6512">
    <rdf:RDF>
      <cc:Work
         rdf:about="">
        <dc:format>image/svg+xml</dc:format>
        <dc:type
           rdf:resource="http://purl.org/dc/dcmitype/StillImage" />
        <dc:title></dc:title>
      </cc:Work>
    </rdf:RDF>
  </metadata>
  <defs
     id="defs6510" />
  <sodipodi:namedview
     pagecolor="#ffffff"
     bordercolor="#666666"
     borderopacity="1"
     objecttolerance="10"
     gridtolerance="10"
     guidetolerance="10"
     inkscape:pageopacity="0"
     inkscape:pageshadow="2"
     inkscape:window-width="1680"
     inkscape:window-height="1005"
     id="namedview6508"
     showgrid="false"
     inkscape:zoom="0.90509668"
     inkscape:cx="384.06103"
     inkscape:cy="-171.74135"
     inkscape:window-x="0"
     inkscape:window-y="1"
     inkscape:window-maximized="1"
     inkscape:current-layer="svg4713"
     fit-margin-top="0"
     fit-margin-left="0"
     fit-margin-right="0"
     fit-margin-bottom="0" />
  <g
     id="g1867"
     transform="translate(-82.797593,-299.80594)">
    <path
       inkscape:connector-curvature="0"
       id="path5127"
       style="fill:#00367e;fill-opacity:1;fill-rule:evenodd"
       d="m 280.34948,321.39235 c 3.8936,-3.8844 10.1969,-3.8811 14.0876,0.003 3.8891,3.879 3.8891,10.1769 0,14.0568 -3.8874,3.8832 -10.194,3.8832 -14.0876,0 -3.8903,-3.8832 -3.8903,-10.1778 0,-14.0598 z" />
    <path
       d="m 229.14328,367.06865 c 0,4.6763 -1.8501,8.505 -5.5539,11.4969 -3.7038,2.986 -8.4956,4.4815 -14.3791,4.4815 -6.2078,0 -11.8697,-1.7924 -16.986,-5.3775 l 4.327,-6.8501 c 4.0323,3.0424 7.9521,4.5641 11.7606,4.5641 2.67,0 4.8485,-0.6789 6.5362,-2.0381 1.6877,-1.4137 2.5335,-3.2576 2.5335,-5.5435 0,-2.7158 -2.0968,-5.9493 -6.2876,-9.6992 -1.9625,-1.7412 -5.0121,-4.2693 -9.1494,-7.5837 -4.7394,-3.7499 -7.1113,-7.8512 -7.1113,-12.3115 0,-4.1813 1.718,-7.5816 5.1478,-10.1886 3.4885,-2.6646 7.9235,-3.9953 13.315,-3.9953 5.2284,0 10.077,1.55 14.5385,4.6481 l -4.408,6.2792 c -3.2123,-2.1747 -6.2926,-3.2618 -9.2324,-3.2618 -2.2312,0 -4.0289,0.5415 -5.3912,1.6288 -1.3045,1.0873 -1.9584,2.5293 -1.9584,4.3217 0,2.1747 1.7442,4.726 5.2276,7.6634 1.2509,1.0317 4.1917,3.4771 8.8201,7.335 5.5024,4.4604 8.251,9.267 8.251,14.4306 z"
       style="fill:#00367e;fill-opacity:1;fill-rule:evenodd"
       id="path5136"
       inkscape:connector-curvature="0" />
    <path
       d="m 273.14998,341.06295 c 0,5.7618 -2.1786,10.434 -6.5351,14.0223 -4.3008,3.5316 -9.9922,5.3261 -17.0731,5.3796 v -7.0095 c 8.0088,-0.5971 12.0104,-4.3482 12.0104,-11.2527 0,-4.2366 -1.6088,-7.0926 -4.8215,-8.5574 -1.4669,-0.6539 -4.0855,-0.9803 -7.8407,-0.9803 h -3.1874 v 49.4048 h -11.3544 v -57.0661 h 15.1147 c 4.0281,0 6.8879,0.1091 8.5756,0.3233 3.1591,0.3829 5.8279,1.2498 8.0064,2.612 4.7406,2.9333 7.1051,7.3077 7.1051,13.124 z"
       style="fill:#00367e;fill-opacity:1;fill-rule:evenodd"
       id="path5138"
       inkscape:connector-curvature="0" />
    <path
       d="m 293.35208,382.06915 h -11.4365 v -40.0894 c 3.6648,1.4786 7.805,1.42 11.4365,-0.1755 z"
       style="fill:#00367e;fill-opacity:1;fill-rule:evenodd"
       id="path5140"
       inkscape:connector-curvature="0" />
  </g>
  <g
     id="g1861"
     transform="translate(-82.797593,-295.80594)">
    <path
       d="m 155.46733,333.66985 c 0.4168,2.568 0.7473,5.2338 0.9898,7.9844 2.1984,25.0945 -4.2316,46.1568 -14.3666,47.0404 -3.052,0.2677 -11.3188,-0.5477 -14.7191,-0.8396 0.7967,-0.34 2.0664,-0.6128 2.8681,-0.974 7.8851,-3.4497 12.761,-23.7007 10.703,-47.1852 -0.2383,-2.7054 -0.5647,-5.3492 -0.974,-7.9121 5.5527,0.2353 10.796,0.8847 15.4988,1.8861 z"
       style="fill:#ff7c00;fill-opacity:1;fill-rule:evenodd"
       id="path5074"
       inkscape:connector-curvature="0" />
    <path
       d="m 139.96613,331.78555 c -4.732,-0.2017 -9.69,-0.0988 -14.7283,0.3421 -1.395,0.1196 -2.7646,0.2645 -4.1132,0.4335 0.1482,-5.8113 0.7839,-11.1448 1.8168,-15.7604 l 0.5298,-0.0473 c 4.3336,-0.3787 8.6059,-0.5045 12.7253,-0.4028 1.5815,4.6165 2.8723,9.8274 3.7696,15.4349 z"
       style="fill:#00367e;fill-opacity:1;fill-rule:evenodd"
       id="path5124"
       inkscape:connector-curvature="0" />
    <path
       d="m 140.77533,320.38795 c 2.3939,-2.8473 6.6495,-3.221 9.5031,-0.8282 2.8568,2.3889 3.2281,6.635 0.8324,9.4853 -2.3939,2.8506 -6.6487,3.2209 -9.5023,0.8312 -2.8556,-2.3928 -3.2292,-6.6401 -0.8332,-9.4883 z"
       style="fill:#00367e;fill-opacity:1;fill-rule:evenodd"
       id="path5130"
       inkscape:connector-curvature="0" />
    <path
       inkscape:connector-curvature="0"
       id="path5133"
       style="fill:#00367e;fill-opacity:1;fill-rule:evenodd"
       d="m 123.28743,374.16885 c 2.3077,1.6603 6.3955,6.4542 3.9272,12.598 -0.4156,1.038 -1.461,1.9102 -2.4005,2.6459 -3.6511,2.9961 -8.9855,5.6598 -15.5973,7.6959 0.6822,-4.9801 0.9592,-10.4447 0.7869,-16.1486 5.5539,-1.9132 10.0523,-4.2788 13.1326,-6.8995 z" />
    <path
       d="m 175.27063,346.58165 c 0.3947,1.1787 0.7104,4.1016 -0.0735,6.1712 -0.5718,1.525 -1.7044,2.5061 -2.1146,2.8851 -3.4352,3.1758 -8.6898,6.021 -15.3971,8.2016 0.6444,-4.9702 0.8972,-10.37 0.7292,-15.9364 5.1939,-1.8703 9.4067,-4.1456 12.3421,-6.6517 l 0.2529,0.1815 c 2.271,1.6499 3.6764,3.4004 4.261,5.1487 z"
       style="fill:#00367e;fill-opacity:1;fill-rule:evenodd"
       id="path5142"
       inkscape:connector-curvature="0" />
    <path
       d="m 102.26293,336.86825 c -5.1636,1.8566 -9.3594,4.1078 -12.2832,6.5898 -2.364504,-1.6654 -3.913504,-3.4917 -4.546304,-5.3764 -0.589,-1.759 -0.7274,-5.4334 1.3485,-8.4967 0.465,-0.6896 0.9633,-1.0379 1.5018,-1.463 3.484204,-2.861 8.511304,-5.4195 14.715804,-7.4178 -0.6622,5.0375 -0.9181,10.5138 -0.7366,16.1641 z"
       style="fill:#00367e;fill-opacity:1;fill-rule:evenodd"
       id="path5144"
       inkscape:connector-curvature="0" />
    <path
       d="m 177.63273,346.04355 c 0.1419,1.5038 -0.1143,2.9993 -0.742,4.4719 0.4073,-1.4598 0.3832,-2.947 -0.1175,-4.4341 -0.7253,-2.1682 -2.3939,-4.1614 -4.8298,-5.9276 -3.8442,-2.7884 -9.5754,-5.0146 -16.4758,-6.4827 -0.9395,-5.8059 -2.3017,-11.1173 -3.9713,-15.7928 12.4207,2.2922 21.5469,6.9519 23.5505,12.9318 1.0791,3.218 2.3961,13.2667 2.5859,15.2335 z"
       style="fill:#00367e;fill-opacity:1;fill-rule:evenodd"
       id="path5146"
       inkscape:connector-curvature="0" />
    <path
       d="m 107.86033,366.44505 c -11.7353,-2.352 -20.282304,-6.8617 -22.202904,-12.5938 -1.0748,-3.2031 -2.3059,-12.2898 -2.7539,-15.0404 -0.3977,-2.4558 0.3338,-4.9 2.0361,-7.2309 -1.4087,2.2595 -1.8085,4.6281 -1.0109,7.0021 1.8819,5.6149 10.040704,10.0636 21.305904,12.4847 11.7406,2.374 20.2855,6.8816 22.2073,12.6161 1.0725,3.2031 2.3035,12.2906 2.7515,15.0401 0.3088,1.9143 -0.0648,3.8225 -1.0513,5.6747 0.1532,-0.5962 0.2653,-1.1995 0.3326,-1.7987 0.1448,-0.8892 0.1321,-1.7823 -0.0453,-2.6783 -0.0586,-0.3413 -0.1404,-0.6676 -0.2412,-0.9761 -0.7536,-2.244 -2.5019,-4.2821 -4.9747,-6.06 l -0.5049,-0.3629 c -3.8451,-2.5712 -9.3267,-4.6525 -15.8463,-6.0546 z"
       style="fill:#00367e;fill-opacity:1;fill-rule:evenodd"
       id="path5148"
       inkscape:connector-curvature="0" />
    <g
       transform="translate(32.031251,-529.6875)"
       id="Layer1019">
      <path
         d="m 112.89708,834.50075 c 2.4662,3.4236 4.712,7.8461 6.5719,13.065 -4.7007,-0.8666 -9.8673,-1.3934 -15.3037,-1.5291 -1.9426,-5.6818 -4.328205,-10.4685 -6.960405,-13.9813 l 0.1639,-0.1815 c 1.6255,-1.7516 3.342605,-2.506 5.044905,-2.8083 2.8387,-0.506 8.1031,1.7484 10.5714,5.6262 z"
         style="fill:#026f5c;fill-opacity:1;fill-rule:evenodd"
         id="path5151"
         inkscape:connector-curvature="0" />
      <path
         d="m 102.23998,826.64275 c 1.5374,0.2184 3.0707,0.8259 4.5757,1.7862 -1.4955,-0.7429 -3.0163,-1.0716 -4.54,-0.9392 -2.2196,0.1939 -4.259005,1.3518 -6.069205,3.3099 -6.4681,6.9854 -10.0163,24.1291 -8.2974,43.7283 0.1847,2.1125 0.8133,6.8343 1.292,10.1422 -4.1613,-2.4053 -9.6177,-4.2387 -15.6648,-5.4647 l -0.595,-0.1291 c -0.3097,-2.1095 -0.5658,-4.2735 -0.7598,-6.4857 -2.1997,-25.0965 4.2788,-46.16 14.4745,-47.0498 3.2924,-0.2877 13.573205,0.8163 15.584005,1.1019 z"
         style="fill:#026f5c;fill-opacity:1;fill-rule:evenodd"
         id="path5153"
         inkscape:connector-curvature="0" />
    </g>
  </g>
  <g
     id="Layer1020"
     transform="matrix(1.2848526,0,0,1.1381756,201.44081,-857.63079)"
     style="fill:#00367e;fill-opacity:1">
    <path
       inkscape:connector-curvature="0"
       id="path5156"
       style="fill:#00367e;fill-opacity:1;fill-rule:evenodd"
       d="m 44.3619,805.4455 1.2626,-1.2078 c 0.3222,0.4986 0.6705,0.8806 1.0463,1.148 0.3745,0.2677 0.7523,0.401 1.1334,0.401 0.5468,0 0.996,-0.1942 1.3477,-0.5804 0.3504,-0.3873 0.5265,-0.8794 0.5265,-1.4756 0,-0.5405 -0.1309,-0.9686 -0.3932,-1.2857 -0.2636,-0.3157 -0.8619,-0.6673 -1.7948,-1.0546 -1.104,-0.4555 -1.8671,-0.9604 -2.2878,-1.5167 -0.4209,-0.556 -0.6318,-1.3045 -0.6318,-2.2437 0,-1.0085 0.3231,-1.8545 0.9695,-2.5397 0.6456,-0.6854 1.4547,-1.0275 2.4255,-1.0275 0.6107,0 1.1766,0.1437 1.6972,0.4325 0.5194,0.2895 1.0242,0.7378 1.5121,1.3465 l -1.0537,1.3182 c -0.3861,-0.4799 -0.7524,-0.8282 -1.0986,-1.0466 -0.3454,-0.2181 -0.7033,-0.3272 -1.0737,-0.3272 -0.5039,0 -0.913,0.1657 -1.2269,0.4974 -0.3129,0.3317 -0.4703,0.7619 -0.4703,1.2908 0,0.4849 0.1261,0.8785 0.3778,1.1796 0.252,0.3013 0.8021,0.633 1.6487,0.9951 1.1745,0.4983 1.9816,1.0484 2.4213,1.6508 0.4397,0.6012 0.6602,1.403 0.6602,2.4052 0,1.0749 -0.3338,1.9742 -1.0014,2.6962 -0.6685,0.722 -1.508,1.0832 -2.5218,1.0832 -0.7241,0 -1.3801,-0.1815 -1.9668,-0.5447 -0.5866,-0.3621 -1.0894,-0.8943 -1.508,-1.5943 z" />
    <path
       inkscape:connector-curvature="0"
       id="path5158"
       style="fill:#00367e;fill-opacity:1;fill-rule:evenodd"
       d="m 44.3619,805.4455 1.2626,-1.2078 c 0.3222,0.4986 0.6705,0.8806 1.0463,1.148 0.3745,0.2677 0.7523,0.401 1.1334,0.401 0.5468,0 0.996,-0.1942 1.3477,-0.5804 0.3504,-0.3873 0.5265,-0.8794 0.5265,-1.4756 0,-0.5405 -0.1309,-0.9686 -0.3932,-1.2857 -0.2636,-0.3157 -0.8619,-0.6673 -1.7948,-1.0546 -1.104,-0.4555 -1.8671,-0.9604 -2.2878,-1.5167 -0.4209,-0.556 -0.6318,-1.3045 -0.6318,-2.2437 0,-1.0085 0.3231,-1.8545 0.9695,-2.5397 0.6456,-0.6854 1.4547,-1.0275 2.4255,-1.0275 0.6107,0 1.1766,0.1437 1.6972,0.4325 0.5194,0.2895 1.0242,0.7378 1.5121,1.3465 l -1.0537,1.3182 c -0.3861,-0.4799 -0.7524,-0.8282 -1.0986,-1.0466 -0.3454,-0.2181 -0.7033,-0.3272 -1.0737,-0.3272 -0.5039,0 -0.913,0.1657 -1.2269,0.4974 -0.3129,0.3317 -0.4703,0.7619 -0.4703,1.2908 0,0.4849 0.1261,0.8785 0.3778,1.1796 0.252,0.3013 0.8021,0.633 1.6487,0.9951 1.1745,0.4983 1.9816,1.0484 2.4213,1.6508 0.4397,0.6012 0.6602,1.403 0.6602,2.4052 0,1.0749 -0.3338,1.9742 -1.0014,2.6962 -0.6685,0.722 -1.508,1.0832 -2.5218,1.0832 -0.7241,0 -1.3801,-0.1815 -1.9668,-0.5447 -0.5866,-0.3621 -1.0894,-0.8943 -1.508,-1.5943 z" />
    <path
       inkscape:connector-curvature="0"
       id="path5160"
       style="fill:#00367e;fill-opacity:1;fill-rule:evenodd"
       d="m 60.7979,807.1507 c -0.3222,0.1595 -0.6465,0.2779 -0.9737,0.3546 -0.3267,0.0768 -0.673,0.1155 -1.0371,0.1155 -0.6381,0 -1.2426,-0.0955 -1.8135,-0.2853 -0.5721,-0.1913 -1.0936,-0.4671 -1.5648,-0.8303 -0.8051,-0.6382 -1.42,-1.4432 -1.846,-2.4148 -0.426,-0.971 -0.6402,-2.0551 -0.6402,-3.2534 0,-0.9772 0.1428,-1.8736 0.4272,-2.6911 0.2844,-0.8175 0.7072,-1.5491 1.2709,-2.1934 0.5361,-0.615 1.1534,-1.0829 1.8534,-1.4063 0.7,-0.3222 1.444,-0.4837 2.2321,-0.4837 0.3109,0 0.6244,0.0291 0.9416,0.088 0.3159,0.0578 0.6402,0.1428 0.9728,0.2529 l 0.2412,2.0182 c -0.3052,-0.2026 -0.6336,-0.3558 -0.9853,-0.4608 -0.3504,-0.1038 -0.7199,-0.1562 -1.1061,-0.1562 -1.1902,0 -2.18,0.4742 -2.968,1.4241 -0.7881,0.9487 -1.1817,2.1524 -1.1817,3.6083 0,0.7313 0.1017,1.403 0.3052,2.0138 0.2038,0.6119 0.504,1.1504 0.9005,1.6174 0.3758,0.4365 0.8155,0.7777 1.3194,1.0231 0.5037,0.2466 1.0189,0.3695 1.5449,0.3695 0.3052,0 0.5843,-0.0253 0.8363,-0.0744 0.252,-0.0485 0.4932,-0.1228 0.7241,-0.2216 0.102,-0.0482 0.2109,-0.1071 0.3296,-0.174 0.1175,-0.0685 0.2624,-0.1577 0.4346,-0.2678 z" />
    <path
       inkscape:connector-curvature="0"
       id="path5162"
       style="fill:#00367e;fill-opacity:1;fill-rule:evenodd"
       d="m 60.7979,807.1507 c -0.3222,0.1595 -0.6465,0.2779 -0.9737,0.3546 -0.3267,0.0768 -0.673,0.1155 -1.0371,0.1155 -0.6381,0 -1.2426,-0.0955 -1.8135,-0.2853 -0.5721,-0.1913 -1.0936,-0.4671 -1.5648,-0.8303 -0.8051,-0.6382 -1.42,-1.4432 -1.846,-2.4148 -0.426,-0.971 -0.6402,-2.0551 -0.6402,-3.2534 0,-0.9772 0.1428,-1.8736 0.4272,-2.6911 0.2844,-0.8175 0.7072,-1.5491 1.2709,-2.1934 0.5361,-0.615 1.1534,-1.0829 1.8534,-1.4063 0.7,-0.3222 1.444,-0.4837 2.2321,-0.4837 0.3109,0 0.6244,0.0291 0.9416,0.088 0.3159,0.0578 0.6402,0.1428 0.9728,0.2529 l 0.2412,2.0182 c -0.3052,-0.2026 -0.6336,-0.3558 -0.9853,-0.4608 -0.3504,-0.1038 -0.7199,-0.1562 -1.1061,-0.1562 -1.1902,0 -2.18,0.4742 -2.968,1.4241 -0.7881,0.9487 -1.1817,2.1524 -1.1817,3.6083 0,0.7313 0.1017,1.403 0.3052,2.0138 0.2038,0.6119 0.504,1.1504 0.9005,1.6174 0.3758,0.4365 0.8155,0.7777 1.3194,1.0231 0.5037,0.2466 1.0189,0.3695 1.5449,0.3695 0.3052,0 0.5843,-0.0253 0.8363,-0.0744 0.252,-0.0485 0.4932,-0.1228 0.7241,-0.2216 0.102,-0.0482 0.2109,-0.1071 0.3296,-0.174 0.1175,-0.0685 0.2624,-0.1577 0.4346,-0.2678 z" />
    <path
       inkscape:connector-curvature="0"
       id="path5164"
       style="fill:#00367e;fill-opacity:1;fill-rule:evenodd"
       d="m 64.3556,796.0075 v 4.6272 l 0.6435,0.0179 c 0.6863,0 1.2215,-0.2026 1.6047,-0.6078 0.384,-0.4061 0.575,-0.9707 0.575,-1.696 0,-0.7316 -0.1931,-1.3045 -0.5792,-1.7189 -0.3853,-0.4147 -0.9193,-0.6224 -1.6005,-0.6224 z m -1.6246,11.494 v -13.1344 h 2.3163 c 1.1745,0 2.1,0.3526 2.775,1.06 0.6759,0.7062 1.0138,1.6612 1.0138,2.866 0,0.8545 -0.19,1.5774 -0.5711,2.1706 -0.3808,0.5929 -0.9255,1.0094 -1.633,1.2488 l 3.282,5.1708 -1.6005,0.7556 -3.9579,-6.5341 v 6.2298 z" />
    <path
       inkscape:connector-curvature="0"
       id="path5166"
       style="fill:#00367e;fill-opacity:1;fill-rule:evenodd"
       d="m 64.3556,796.0075 v 4.6272 l 0.6435,0.0179 c 0.6863,0 1.2215,-0.2026 1.6047,-0.6078 0.384,-0.4061 0.575,-0.9707 0.575,-1.696 0,-0.7316 -0.1931,-1.3045 -0.5792,-1.7189 -0.3853,-0.4147 -0.9193,-0.6224 -1.6005,-0.6224 z m -1.6246,11.494 v -13.1344 h 2.3163 c 1.1745,0 2.1,0.3526 2.775,1.06 0.6759,0.7062 1.0138,1.6612 1.0138,2.866 0,0.8545 -0.19,1.5774 -0.5711,2.1706 -0.3808,0.5929 -0.9255,1.0094 -1.633,1.2488 l 3.282,5.1708 -1.6005,0.7556 -3.9579,-6.5341 v 6.2298 z" />
    <path
       inkscape:connector-curvature="0"
       id="path5168"
       style="fill:#00367e;fill-opacity:1;fill-rule:evenodd"
       d="m 71.0186,807.3352 v -12.9687 h 5.9445 l 0.362,1.696 h -4.6819 v 3.6134 h 3.7246 v 1.696 h -3.7246 v 4.1655 h 5.0598 l -0.4746,1.7978 z" />
    <path
       inkscape:connector-curvature="0"
       id="path5170"
       style="fill:#00367e;fill-opacity:1;fill-rule:evenodd"
       d="m 71.0186,807.3352 v -12.9687 h 5.9445 l 0.362,1.696 h -4.6819 v 3.6134 h 3.7246 v 1.696 h -3.7246 v 4.1655 h 5.0598 l -0.4746,1.7978 z" />
    <path
       inkscape:connector-curvature="0"
       id="path5172"
       style="fill:#00367e;fill-opacity:1;fill-rule:evenodd"
       d="m 79.1217,807.3352 v -12.9687 h 5.9442 l 0.3621,1.696 h -4.6817 v 3.6134 h 3.7246 v 1.696 h -3.7246 v 4.1655 h 5.0595 l -0.4745,1.7978 z" />
    <path
       inkscape:connector-curvature="0"
       id="path5174"
       style="fill:#00367e;fill-opacity:1;fill-rule:evenodd"
       d="m 79.1217,807.3352 v -12.9687 h 5.9442 l 0.3621,1.696 h -4.6817 v 3.6134 h 3.7246 v 1.696 h -3.7246 v 4.1655 h 5.0595 l -0.4745,1.7978 z" />
    <path
       inkscape:connector-curvature="0"
       id="path5176"
       style="fill:#00367e;fill-opacity:1;fill-rule:evenodd"
       d="m 87.2242,807.5654 v -13.4482 l 7.3443,8.9135 v -8.6636 l 1.6478,-0.2499 v 13.4482 l -7.3674,-8.9123 v 8.6815 z" />
    <path
       inkscape:connector-curvature="0"
       id="path5178"
       style="fill:#00367e;fill-opacity:1;fill-rule:evenodd"
       d="m 87.2242,807.5654 v -13.4482 l 7.3443,8.9135 v -8.6636 l 1.6478,-0.2499 v 13.4482 l -7.3674,-8.9123 v 8.6815 z" />
    <path
       inkscape:connector-curvature="0"
       id="path5180"
       style="fill:#00367e;fill-opacity:1;fill-rule:evenodd"
       d="m 105.0545,796.0257 v 5.3462 h 0.7158 c 0.7452,0 1.3232,-0.2341 1.7338,-0.7012 0.4102,-0.467 0.6149,-1.1209 0.6149,-1.9625 0,-0.8417 -0.2067,-1.4997 -0.6191,-1.973 -0.4135,-0.4724 -0.9897,-0.7095 -1.7296,-0.7095 z m -1.6258,11.4752 v -13.1344 h 2.5189 c 1.168,0 2.1033,0.3957 2.8033,1.1849 0.7,0.789 1.0495,1.8418 1.0495,3.1568 0,1.3149 -0.3495,2.3665 -1.0495,3.157 -0.7,0.7892 -1.6353,1.1837 -2.8033,1.1837 h -0.8931 v 4.286 z" />
    <path
       inkscape:connector-curvature="0"
       id="path5182"
       style="fill:#00367e;fill-opacity:1;fill-rule:evenodd"
       d="m 105.0545,796.0257 v 5.3462 h 0.7158 c 0.7452,0 1.3232,-0.2341 1.7338,-0.7012 0.4102,-0.467 0.6149,-1.1209 0.6149,-1.9625 0,-0.8417 -0.2067,-1.4997 -0.6191,-1.973 -0.4135,-0.4724 -0.9897,-0.7095 -1.7296,-0.7095 z m -1.6258,11.4752 v -13.1344 h 2.5189 c 1.168,0 2.1033,0.3957 2.8033,1.1849 0.7,0.789 1.0495,1.8418 1.0495,3.1568 0,1.3149 -0.3495,2.3665 -1.0495,3.157 -0.7,0.7892 -1.6353,1.1837 -2.8033,1.1837 h -0.8931 v 4.286 z" />
    <path
       inkscape:connector-curvature="0"
       id="path5184"
       style="fill:#00367e;fill-opacity:1;fill-rule:evenodd"
       d="m 113.2618,796.0075 v 4.6272 l 0.6432,0.0179 c 0.6866,0 1.2218,-0.2026 1.6046,-0.6078 0.3832,-0.4061 0.5754,-0.9707 0.5754,-1.696 0,-0.7316 -0.1934,-1.3045 -0.5795,-1.7189 -0.3862,-0.4147 -0.9193,-0.6224 -1.6005,-0.6224 z m -1.6258,11.494 v -13.1344 h 2.3175 c 1.1742,0 2.1,0.3526 2.7747,1.06 0.6759,0.7062 1.0138,1.6612 1.0138,2.866 0,0.8545 -0.191,1.5774 -0.5708,2.1706 -0.3811,0.5929 -0.9259,1.0094 -1.633,1.2488 l 3.2817,5.1708 -1.6006,0.7556 -3.9575,-6.5341 v 6.2298 z" />
    <path
       inkscape:connector-curvature="0"
       id="path5186"
       style="fill:#00367e;fill-opacity:1;fill-rule:evenodd"
       d="m 113.2618,796.0075 v 4.6272 l 0.6432,0.0179 c 0.6866,0 1.2218,-0.2026 1.6046,-0.6078 0.3832,-0.4061 0.5754,-0.9707 0.5754,-1.696 0,-0.7316 -0.1934,-1.3045 -0.5795,-1.7189 -0.3862,-0.4147 -0.9193,-0.6224 -1.6005,-0.6224 z m -1.6258,11.494 v -13.1344 h 2.3175 c 1.1742,0 2.1,0.3526 2.7747,1.06 0.6759,0.7062 1.0138,1.6612 1.0138,2.866 0,0.8545 -0.191,1.5774 -0.5708,2.1706 -0.3811,0.5929 -0.9259,1.0094 -1.633,1.2488 l 3.2817,5.1708 -1.6006,0.7556 -3.9575,-6.5341 v 6.2298 z" />
    <path
       inkscape:connector-curvature="0"
       id="path5188"
       style="fill:#00367e;fill-opacity:1;fill-rule:evenodd"
       d="m 119.9887,807.5009 v -13.1344 l 1.633,-0.1847 v 13.1534 z" />
    <path
       inkscape:connector-curvature="0"
       id="path5190"
       style="fill:#00367e;fill-opacity:1;fill-rule:evenodd"
       d="m 119.9887,807.5009 v -13.1344 l 1.633,-0.1847 v 13.1534 z" />
    <path
       inkscape:connector-curvature="0"
       id="path5192"
       style="fill:#00367e;fill-opacity:1;fill-rule:evenodd"
       d="m 124.0453,807.5654 v -13.4482 l 7.3446,8.9135 v -8.6636 l 1.6487,-0.2499 v 13.4482 l -7.3686,-8.9123 v 8.6815 z" />
    <path
       inkscape:connector-curvature="0"
       id="path5194"
       style="fill:#00367e;fill-opacity:1;fill-rule:evenodd"
       d="m 124.0453,807.5654 v -13.4482 l 7.3446,8.9135 v -8.6636 l 1.6487,-0.2499 v 13.4482 l -7.3686,-8.9123 v 8.6815 z" />
    <path
       inkscape:connector-curvature="0"
       id="path5196"
       style="fill:#00367e;fill-opacity:1;fill-rule:evenodd"
       d="m 137.0393,807.5009 v -11.4196 h -2.9366 l 0.5638,-1.7148 h 6.6516 v 1.7148 h -2.6459 v 11.2539 z" />
    <path
       inkscape:connector-curvature="0"
       id="path5198"
       style="fill:#00367e;fill-opacity:1;fill-rule:evenodd"
       d="m 137.0393,807.5009 v -11.4196 h -2.9366 l 0.5638,-1.7148 h 6.6516 v 1.7148 h -2.6459 v 11.2539 z" />
    <path
       inkscape:connector-curvature="0"
       id="path5200"
       style="fill:#00367e;fill-opacity:1;fill-rule:evenodd"
       d="m 142.8008,807.5009 v -13.1344 l 1.633,-0.1847 v 13.1534 z" />
    <path
       inkscape:connector-curvature="0"
       id="path5202"
       style="fill:#00367e;fill-opacity:1;fill-rule:evenodd"
       d="m 142.8008,807.5009 v -13.1344 l 1.633,-0.1847 v 13.1534 z" />
    <path
       inkscape:connector-curvature="0"
       id="path5204"
       style="fill:#00367e;fill-opacity:1;fill-rule:evenodd"
       d="m 146.8575,807.5654 v -13.4482 l 7.3445,8.9135 v -8.6636 l 1.6487,-0.2499 v 13.4482 l -7.3674,-8.9123 v 8.6815 z" />
    <path
       inkscape:connector-curvature="0"
       id="path5206"
       style="fill:#00367e;fill-opacity:1;fill-rule:evenodd"
       d="m 146.8575,807.5654 v -13.4482 l 7.3445,8.9135 v -8.6636 l 1.6487,-0.2499 v 13.4482 l -7.3674,-8.9123 v 8.6815 z" />
    <path
       inkscape:connector-curvature="0"
       id="path5208"
       style="fill:#00367e;fill-opacity:1;fill-rule:evenodd"
       d="m 167.8061,805.8049 c -0.6486,0.6265 -1.3203,1.0894 -2.0149,1.3875 -0.695,0.2981 -1.4441,0.4471 -2.2482,0.4471 -0.874,0 -1.6633,-0.1574 -2.3687,-0.4703 -0.705,-0.3136 -1.339,-0.786 -1.9027,-1.42 -0.5572,-0.6443 -0.977,-1.3809 -1.2581,-2.2071 -0.2823,-0.8258 -0.4231,-1.7284 -0.4231,-2.7054 0,-0.9707 0.1408,-1.8662 0.4231,-2.6866 0.2811,-0.8199 0.7009,-1.5533 1.2581,-2.1976 0.5637,-0.6331 1.2027,-1.1094 1.9185,-1.4295 0.7158,-0.3192 1.5104,-0.4787 2.3856,-0.4787 0.83,0 1.5877,0.1533 2.272,0.4609 0.6833,0.3073 1.2637,0.7523 1.7412,1.336 l -1.0537,1.2813 c -0.3966,-0.4546 -0.8437,-0.7946 -1.339,-1.018 -0.4966,-0.2246 -1.0475,-0.3368 -1.6532,-0.3368 -1.2331,0 -2.2511,0.4763 -3.0529,1.4283 -0.8017,0.9529 -1.2028,2.166 -1.2028,3.6407 0,1.4693 0.3936,2.6792 1.1787,3.6321 0.786,0.952 1.782,1.4286 2.988,1.4286 0.5257,0 1.0201,-0.0893 1.4839,-0.2678 0.465,-0.1785 0.8973,-0.445 1.2992,-0.8017 v -3.1704 h -3.5232 l 0.5795,-1.6499 h 4.5127 z" />
    <path
       inkscape:connector-curvature="0"
       id="path5210"
       style="fill:#00367e;fill-opacity:1;fill-rule:evenodd"
       d="m 167.8061,805.8049 c -0.6486,0.6265 -1.3203,1.0894 -2.0149,1.3875 -0.695,0.2981 -1.4441,0.4471 -2.2482,0.4471 -0.874,0 -1.6633,-0.1574 -2.3687,-0.4703 -0.705,-0.3136 -1.339,-0.786 -1.9027,-1.42 -0.5572,-0.6443 -0.977,-1.3809 -1.2581,-2.2071 -0.2823,-0.8258 -0.4231,-1.7284 -0.4231,-2.7054 0,-0.9707 0.1408,-1.8662 0.4231,-2.6866 0.2811,-0.8199 0.7009,-1.5533 1.2581,-2.1976 0.5637,-0.6331 1.2027,-1.1094 1.9185,-1.4295 0.7158,-0.3192 1.5104,-0.4787 2.3856,-0.4787 0.83,0 1.5877,0.1533 2.272,0.4609 0.6833,0.3073 1.2637,0.7523 1.7412,1.336 l -1.0537,1.2813 c -0.3966,-0.4546 -0.8437,-0.7946 -1.339,-1.018 -0.4966,-0.2246 -1.0475,-0.3368 -1.6532,-0.3368 -1.2331,0 -2.2511,0.4763 -3.0529,1.4283 -0.8017,0.9529 -1.2028,2.166 -1.2028,3.6407 0,1.4693 0.3936,2.6792 1.1787,3.6321 0.786,0.952 1.782,1.4286 2.988,1.4286 0.5257,0 1.0201,-0.0893 1.4839,-0.2678 0.465,-0.1785 0.8973,-0.445 1.2992,-0.8017 v -3.1704 h -3.5232 l 0.5795,-1.6499 h 4.5127 z" />
    <path
       inkscape:connector-curvature="0"
       id="path5212"
       style="fill:#00367e;fill-opacity:1;fill-rule:evenodd"
       d="m 174.9864,807.5009 v -13.1344 l 1.6329,-0.1847 v 13.1534 z" />
    <path
       inkscape:connector-curvature="0"
       id="path5214"
       style="fill:#00367e;fill-opacity:1;fill-rule:evenodd"
       d="m 174.9864,807.5009 v -13.1344 l 1.6329,-0.1847 v 13.1534 z" />
    <path
       inkscape:connector-curvature="0"
       id="path5216"
       style="fill:#00367e;fill-opacity:1;fill-rule:evenodd"
       d="m 179.0433,807.5654 v -13.4482 l 7.3445,8.9135 v -8.6636 l 1.6487,-0.2499 v 13.4482 l -7.3674,-8.9123 v 8.6815 z" />
    <path
       inkscape:connector-curvature="0"
       id="path5218"
       style="fill:#00367e;fill-opacity:1;fill-rule:evenodd"
       d="m 179.0433,807.5654 v -13.4482 l 7.3445,8.9135 v -8.6636 l 1.6487,-0.2499 v 13.4482 l -7.3674,-8.9123 v 8.6815 z" />
    <path
       inkscape:connector-curvature="0"
       id="path5220"
       style="fill:#00367e;fill-opacity:1;fill-rule:evenodd"
       d="m 190.291,807.5654 v -13.4482 l 7.3442,8.9135 v -8.6636 l 1.649,-0.2499 v 13.4482 l -7.3674,-8.9123 v 8.6815 z" />
    <path
       inkscape:connector-curvature="0"
       id="path5222"
       style="fill:#00367e;fill-opacity:1;fill-rule:evenodd"
       d="m 190.291,807.5654 v -13.4482 l 7.3442,8.9135 v -8.6636 l 1.649,-0.2499 v 13.4482 l -7.3674,-8.9123 v 8.6815 z" />
    <path
       inkscape:connector-curvature="0"
       id="path5224"
       style="fill:#00367e;fill-opacity:1;fill-rule:evenodd"
       d="m 206.9765,805.9155 c 1.2277,0 2.2428,-0.4763 3.0445,-1.4282 0.8018,-0.9529 1.2028,-2.1694 1.2028,-3.6503 0,-1.4744 -0.401,-2.6875 -1.2028,-3.6407 -0.8017,-0.9529 -1.8168,-1.4283 -3.0445,-1.4283 -1.2331,0 -2.2512,0.4754 -3.0529,1.4283 -0.802,0.9532 -1.2028,2.1663 -1.2028,3.6407 0,1.4809 0.4008,2.6974 1.2028,3.6503 0.8017,0.9519 1.8198,1.4282 3.0529,1.4282 z m -5.9529,-5.0785 c 0,-0.9582 0.1407,-1.848 0.4231,-2.6688 0.2811,-0.8196 0.7012,-1.5586 1.2584,-2.2166 0.5634,-0.6328 1.1974,-1.1061 1.9027,-1.4188 0.7051,-0.3138 1.4944,-0.4703 2.3687,-0.4703 0.869,0 1.6529,0.1565 2.3529,0.4703 0.6991,0.3127 1.3256,0.786 1.8774,1.4188 0.5638,0.6455 0.9865,1.3771 1.2709,2.1946 0.2844,0.8166 0.4263,1.7138 0.4263,2.6908 0,0.9835 -0.1427,1.887 -0.4292,2.7099 -0.2877,0.8237 -0.7096,1.5574 -1.268,2.2029 -0.5518,0.6328 -1.1783,1.1061 -1.8774,1.4188 -0.7,0.3138 -1.4839,0.4703 -2.3529,0.4703 -0.8743,0 -1.6636,-0.1565 -2.3687,-0.4703 -0.7053,-0.3127 -1.3393,-0.786 -1.9027,-1.4188 -0.5522,-0.6518 -0.9708,-1.3908 -1.2552,-2.2166 -0.2835,-0.827 -0.4263,-1.7255 -0.4263,-2.6962 z" />
    <path
       inkscape:connector-curvature="0"
       id="path5226"
       style="fill:#00367e;fill-opacity:1;fill-rule:evenodd"
       d="m 206.9765,805.9155 c 1.2277,0 2.2428,-0.4763 3.0445,-1.4282 0.8018,-0.9529 1.2028,-2.1694 1.2028,-3.6503 0,-1.4744 -0.401,-2.6875 -1.2028,-3.6407 -0.8017,-0.9529 -1.8168,-1.4283 -3.0445,-1.4283 -1.2331,0 -2.2512,0.4754 -3.0529,1.4283 -0.802,0.9532 -1.2028,2.1663 -1.2028,3.6407 0,1.4809 0.4008,2.6974 1.2028,3.6503 0.8017,0.9519 1.8198,1.4282 3.0529,1.4282 z m -5.9529,-5.0785 c 0,-0.9582 0.1407,-1.848 0.4231,-2.6688 0.2811,-0.8196 0.7012,-1.5586 1.2584,-2.2166 0.5634,-0.6328 1.1974,-1.1061 1.9027,-1.4188 0.7051,-0.3138 1.4944,-0.4703 2.3687,-0.4703 0.869,0 1.6529,0.1565 2.3529,0.4703 0.6991,0.3127 1.3256,0.786 1.8774,1.4188 0.5638,0.6455 0.9865,1.3771 1.2709,2.1946 0.2844,0.8166 0.4263,1.7138 0.4263,2.6908 0,0.9835 -0.1427,1.887 -0.4292,2.7099 -0.2877,0.8237 -0.7096,1.5574 -1.268,2.2029 -0.5518,0.6328 -1.1783,1.1061 -1.8774,1.4188 -0.7,0.3138 -1.4839,0.4703 -2.3529,0.4703 -0.8743,0 -1.6636,-0.1565 -2.3687,-0.4703 -0.7053,-0.3127 -1.3393,-0.786 -1.9027,-1.4188 -0.5522,-0.6518 -0.9708,-1.3908 -1.2552,-2.2166 -0.2835,-0.827 -0.4263,-1.7255 -0.4263,-2.6962 z" />
    <path
       inkscape:connector-curvature="0"
       id="path5228"
       style="fill:#00367e;fill-opacity:1;fill-rule:evenodd"
       d="m 217.8862,807.6577 -5.0583,-13.2909 1.7284,-0.3043 3.0163,8.4798 c 0.0536,0.1469 0.1071,0.3349 0.1604,0.5625 0.0535,0.2267 0.105,0.4787 0.1532,0.7556 0.0273,-0.1603 0.0684,-0.3379 0.1249,-0.5351 0.0568,-0.1961 0.125,-0.4145 0.2047,-0.6539 l 3.1454,-8.6089 1.5848,0.3043 z" />
    <path
       inkscape:connector-curvature="0"
       id="path5230"
       style="fill:#00367e;fill-opacity:1;fill-rule:evenodd"
       d="m 217.8862,807.6577 -5.0583,-13.2909 1.7284,-0.3043 3.0163,8.4798 c 0.0536,0.1469 0.1071,0.3349 0.1604,0.5625 0.0535,0.2267 0.105,0.4787 0.1532,0.7556 0.0273,-0.1603 0.0684,-0.3379 0.1249,-0.5351 0.0568,-0.1961 0.125,-0.4145 0.2047,-0.6539 l 3.1454,-8.6089 1.5848,0.3043 z" />
    <path
       inkscape:connector-curvature="0"
       id="path5232"
       style="fill:#00367e;fill-opacity:1;fill-rule:evenodd"
       d="m 225.5386,801.4085 h 3.1454 l -1.5764,-3.6964 z m -4.1352,5.6777 5.7682,-13.1156 5.7511,13.0977 -1.5847,0.4787 -1.9781,-4.5716 h -4.4814 l -1.9784,4.5716 z" />
    <path
       inkscape:connector-curvature="0"
       id="path5234"
       style="fill:#00367e;fill-opacity:1;fill-rule:evenodd"
       d="m 225.5386,801.4085 h 3.1454 l -1.5764,-3.6964 z m -4.1352,5.6777 5.7682,-13.1156 5.7511,13.0977 -1.5847,0.4787 -1.9781,-4.5716 h -4.4814 l -1.9784,4.5716 z" />
    <path
       inkscape:connector-curvature="0"
       id="path5236"
       style="fill:#00367e;fill-opacity:1;fill-rule:evenodd"
       d="m 234.5423,807.5009 v -11.4196 h -2.9366 l 0.5634,-1.7148 h 6.6517 v 1.7148 h -2.6456 v 11.2539 z" />
    <path
       inkscape:connector-curvature="0"
       id="path5238"
       style="fill:#00367e;fill-opacity:1;fill-rule:evenodd"
       d="m 234.5423,807.5009 v -11.4196 h -2.9366 l 0.5634,-1.7148 h 6.6517 v 1.7148 h -2.6456 v 11.2539 z" />
    <path
       inkscape:connector-curvature="0"
       id="path5240"
       style="fill:#00367e;fill-opacity:1;fill-rule:evenodd"
       d="m 240.3041,807.5009 v -13.1344 l 1.6333,-0.1847 v 13.1534 z" />
    <path
       inkscape:connector-curvature="0"
       id="path5242"
       style="fill:#00367e;fill-opacity:1;fill-rule:evenodd"
       d="m 240.3041,807.5009 v -13.1344 l 1.6333,-0.1847 v 13.1534 z" />
    <path
       inkscape:connector-curvature="0"
       id="path5244"
       style="fill:#00367e;fill-opacity:1;fill-rule:evenodd"
       d="m 249.7986,805.9155 c 1.2281,0 2.2428,-0.4763 3.0446,-1.4282 0.802,-0.9529 1.2027,-2.1694 1.2027,-3.6503 0,-1.4744 -0.4007,-2.6875 -1.2027,-3.6407 -0.8018,-0.9529 -1.8165,-1.4283 -3.0446,-1.4283 -1.2331,0 -2.2511,0.4754 -3.0529,1.4283 -0.8017,0.9532 -1.2027,2.1663 -1.2027,3.6407 0,1.4809 0.401,2.6974 1.2027,3.6503 0.8018,0.9519 1.8198,1.4282 3.0529,1.4282 z m -5.9516,-5.0785 c 0,-0.9582 0.1398,-1.848 0.4221,-2.6688 0.2811,-0.8196 0.7009,-1.5586 1.2581,-2.2166 0.5638,-0.6328 1.1977,-1.1061 1.9028,-1.4188 0.7053,-0.3138 1.4946,-0.4703 2.3686,-0.4703 0.869,0 1.6532,0.1565 2.3532,0.4703 0.6988,0.3127 1.3253,0.786 1.8775,1.4188 0.5634,0.6455 0.9874,1.3771 1.2709,2.1946 0.2844,0.8166 0.426,1.7138 0.426,2.6908 0,0.9835 -0.1428,1.887 -0.4293,2.7099 -0.2874,0.8237 -0.7092,1.5574 -1.2676,2.2029 -0.5522,0.6328 -1.1787,1.1061 -1.8775,1.4188 -0.7,0.3138 -1.4842,0.4703 -2.3532,0.4703 -0.874,0 -1.6633,-0.1565 -2.3686,-0.4703 -0.7051,-0.3127 -1.339,-0.786 -1.9028,-1.4188 -0.5518,-0.6518 -0.9707,-1.3908 -1.2551,-2.2166 -0.2832,-0.827 -0.4251,-1.7255 -0.4251,-2.6962 z" />
    <path
       inkscape:connector-curvature="0"
       id="path5246"
       style="fill:#00367e;fill-opacity:1;fill-rule:evenodd"
       d="m 249.7986,805.9155 c 1.2281,0 2.2428,-0.4763 3.0446,-1.4282 0.802,-0.9529 1.2027,-2.1694 1.2027,-3.6503 0,-1.4744 -0.4007,-2.6875 -1.2027,-3.6407 -0.8018,-0.9529 -1.8165,-1.4283 -3.0446,-1.4283 -1.2331,0 -2.2511,0.4754 -3.0529,1.4283 -0.8017,0.9532 -1.2027,2.1663 -1.2027,3.6407 0,1.4809 0.401,2.6974 1.2027,3.6503 0.8018,0.9519 1.8198,1.4282 3.0529,1.4282 z m -5.9516,-5.0785 c 0,-0.9582 0.1398,-1.848 0.4221,-2.6688 0.2811,-0.8196 0.7009,-1.5586 1.2581,-2.2166 0.5638,-0.6328 1.1977,-1.1061 1.9028,-1.4188 0.7053,-0.3138 1.4946,-0.4703 2.3686,-0.4703 0.869,0 1.6532,0.1565 2.3532,0.4703 0.6988,0.3127 1.3253,0.786 1.8775,1.4188 0.5634,0.6455 0.9874,1.3771 1.2709,2.1946 0.2844,0.8166 0.426,1.7138 0.426,2.6908 0,0.9835 -0.1428,1.887 -0.4293,2.7099 -0.2874,0.8237 -0.7092,1.5574 -1.2676,2.2029 -0.5522,0.6328 -1.1787,1.1061 -1.8775,1.4188 -0.7,0.3138 -1.4842,0.4703 -2.3532,0.4703 -0.874,0 -1.6633,-0.1565 -2.3686,-0.4703 -0.7051,-0.3127 -1.339,-0.786 -1.9028,-1.4188 -0.5518,-0.6518 -0.9707,-1.3908 -1.2551,-2.2166 -0.2832,-0.827 -0.4251,-1.7255 -0.4251,-2.6962 z" />
    <path
       inkscape:connector-curvature="0"
       id="path5248"
       style="fill:#00367e;fill-opacity:1;fill-rule:evenodd"
       d="m 257.5234,807.5654 v -13.4482 l 7.3442,8.9135 v -8.6636 l 1.6487,-0.2499 v 13.4482 l -7.3674,-8.9123 v 8.6815 z" />
    <path
       inkscape:connector-curvature="0"
       id="path5250"
       style="fill:#00367e;fill-opacity:1;fill-rule:evenodd"
       d="m 257.5234,807.5654 v -13.4482 l 7.3442,8.9135 v -8.6636 l 1.6487,-0.2499 v 13.4482 l -7.3674,-8.9123 v 8.6815 z" />
  </g>
</svg>
